<svg width="1024" height="1024" viewBox="0 0 1024 1024" xmlns="http://www.w3.org/2000/svg">
  <!-- Rounded square background -->
  <rect width="1024" height="1024" rx="234" fill="#1e1d1b" />

  <!-- Coffee cup icon — matches the brand logo used in the title bar -->
  <svg x="162" y="162" width="700" height="700" viewBox="0 0 24 24" overflow="visible">
    <!-- Cup body -->
    <path d="M17 9v9c0 1.66-1.34 3-3 3H10c-1.66 0-3-1.34-3-3V9z" fill="#c4956a" stroke="#c4956a" stroke-width="1.5" stroke-linecap="round" stroke-linejoin="round"/>
    <!-- Cup handle -->
    <path d="M17 9h3c0.55 0 1 0.45 1 1v3c0 0.55-0.45 1-1 1h-3" fill="none" stroke="#c4956a" stroke-width="1.5" stroke-linecap="round" stroke-linejoin="round"/>
    <!-- Steam lines -->
    <path d="M8 2c0 1.5-1.5 1.5-1.5 3s1.5 1.5 1.5 3" fill="none" stroke="#c4956a" stroke-width="1.2" stroke-linecap="round" opacity="0.6"/>
    <path d="M12 2c0 1.5-1.5 1.5-1.5 3s1.5 1.5 1.5 3" fill="none" stroke="#c4956a" stroke-width="1.2" stroke-linecap="round" opacity="0.6"/>
    <path d="M16 2c0 1.5-1.5 1.5-1.5 3s1.5 1.5 1.5 3" fill="none" stroke="#c4956a" stroke-width="1.2" stroke-linecap="round" opacity="0.6"/>
  </svg>
</svg>