<svg xmlns="http://www.w3.org/2000/svg" width="32" height="32" viewBox="0 0 24 24"><defs><mask id="SVG5AkzhcyZ"><path fill="none" stroke="#fff" stroke-linecap="round" stroke-linejoin="round" stroke-width="2" d="M8 -8c0 2 -2 2 -2 4s2 2 2 4s-2 2 -2 4s2 2 2 4M12 -8c0 2 -2 2 -2 4s2 2 2 4s-2 2 -2 4s2 2 2 4M16 -8c0 2 -2 2 -2 4s2 2 2 4s-2 2 -2 4s2 2 2 4"><animate attributeName="d" dur="3s" repeatCount="indefinite" values="M8 0c0 2 -2 2 -2 4s2 2 2 4s-2 2 -2 4s2 2 2 4M12 0c0 2 -2 2 -2 4s2 2 2 4s-2 2 -2 4s2 2 2 4M16 0c0 2 -2 2 -2 4s2 2 2 4s-2 2 -2 4s2 2 2 4;M8 -8c0 2 -2 2 -2 4s2 2 2 4s-2 2 -2 4s2 2 2 4M12 -8c0 2 -2 2 -2 4s2 2 2 4s-2 2 -2 4s2 2 2 4M16 -8c0 2 -2 2 -2 4s2 2 2 4s-2 2 -2 4s2 2 2 4"/></path><path d="M4 7h16v0h-16v12h16v-32h-16Z"><animate fill="freeze" attributeName="d" begin="1s" dur="0.6s" to="M4 2h16v5h-16v12h16v-24h-16Z"/></path></mask></defs><g stroke="#c0713a" stroke-linecap="round" stroke-linejoin="round" stroke-width="2"><path fill="#c0713a" fill-opacity="0" stroke-dasharray="48" d="M17 9v9c0 1.66 -1.34 3 -3 3h-6c-1.66 0 -3 -1.34 -3 -3v-9Z"><animate fill="freeze" attributeName="stroke-dashoffset" dur="0.6s" values="48;0"/><animate fill="freeze" attributeName="fill-opacity" begin="1.6s" dur="0.4s" to="1"/></path><path fill="none" stroke-dasharray="16" stroke-dashoffset="16" d="M17 9h3c0.55 0 1 0.45 1 1v3c0 0.55 -0.45 1 -1 1h-3"><animate fill="freeze" attributeName="stroke-dashoffset" begin="0.6s" dur="0.3s" to="0"/></path></g><path fill="#c0713a" d="M0 0h24v24H0z" mask="url(#SVG5AkzhcyZ)"/></svg>
